<svg width="24" height="24" viewBox="0 0 24 24" fill="none" stroke="currentColor" stroke-linecap="round"
  stroke-linejoin="round" xmlns="http://www.w3.org/2000/svg">
  <path
    d="M15.06 6.045c-.695-.707-1.815-1.218-2.808-1.343-.747-.095-1.363.215-1.807.815-2.627 3.533 3.192 5.918 2.76 9.4-.188 1.512-2.1 1.177-2.998 1.823-1.21.87-.1 2.3-1.713 2.925" />
  <path d="M11.16 10.155c2.395 1.065 6.182 1.045 7.9-1.16m.515.308c2.422 1.24 3.49 3.043 3.49 5.745" />
  <path
    d="M22.96 14.948c-.29-1.498-3.853-3.147-3.575-.703m-.425-.018c-.637-.807-3.18-1.787-3.18-.103m-5.747-3.597a7.5 7.5 0 0 1-6.567-1.532m-.308 0c-1.85.41-2.647 4.12-2.075 5.745m7.512-1.077c-2.092-1.407-2.067.22-2.868.615-.505.25-1.015-.665-1.578-.615-.99.09-1.715.707-2.532 1.18M13.453 4.275c-.115.403.16.458.367.717" />
</svg>